<?xml version="1.0" encoding="utf-8"?>
<!DOCTYPE svg PUBLIC "-//W3C//DTD SVG 1.0//EN" "http://www.w3.org/TR/2001/REC-SVG-20010904/DTD/svg10.dtd">
<svg version="1.0" xmlns="http://www.w3.org/2000/svg" width="512px" height="512px" viewBox="0 0 512 512" preserveAspectRatio="xMidYMid meet">
 <g fill="#000000">
  <path d="M363.70 510.30 c-3.30 -2.20 -5.65 -5.05 -7.85 -9.20 -0.95 -1.85 -17.10 -33.15 -35.85 -69.60 -18.80 -36.45 -37.55 -72.90 -41.75 -81 -48.15 -93.40 -54.75 -106.45 -55.30 -108.95 -0.85 -3.95 -0.35 -11.20 1 -14.65 2.25 -5.80 8.30 -10.65 14.95 -11.95 3.90 -0.75 9.65 -0.30 13 0.95 1.35 0.55 11.90 5.95 23.40 12.10 11.50 6.10 26.35 14 32.95 17.50 13 6.90 42.70 22.65 67.75 36 8.65 4.60 23 12.25 31.90 16.95 8.85 4.70 23.25 12.35 32 17 8.70 4.65 24.85 13.20 35.85 19.05 29.05 15.40 29.30 15.55 31.85 18.05 4.15 4.10 4.40 5.05 4.40 15.45 0 8.20 -0.10 9.25 -1.05 11.10 -2.55 5 -3.05 5.30 -42.85 25.40 l-37.20 18.75 -18.25 40.25 c-19.40 42.80 -19.45 42.95 -24.65 46.65 l-2.65 1.85 -9.55 0 -9.55 0 -2.55 -1.70z"/>
  <path d="M220.10 470.45 c-45.75 -2.45 -91.20 -19.10 -127.85 -46.70 -17.40 -13.15 -34.15 -29.95 -47.35 -47.50 -22.90 -30.60 -38.05 -67.10 -43.90 -105.90 -1 -6.50 -1.05 -8.45 -0.85 -37 0.15 -28.30 0.25 -30.45 1.25 -36.10 2.55 -14.10 5.20 -24.60 9.15 -36.40 16.85 -50.60 49.40 -93.05 94.50 -123.25 27.95 -18.70 63.65 -32.25 97.20 -36.85 5.20 -0.70 10.10 -0.80 36 -0.60 33.55 0.20 32.95 0.15 51.60 4.55 47.70 11.25 90 36.65 122.55 73.55 24.70 28 42.70 62.60 51.55 98.85 3.80 15.65 5.75 29.10 6.60 46.40 0.85 16.60 -0.10 21.15 -5.60 27.20 -4.50 4.95 -10.65 7.10 -18.70 6.65 -7.50 -0.40 -13.10 -3.35 -17.10 -8.95 -3.10 -4.30 -3.70 -7 -4.20 -18.15 -0.45 -11.50 -1.05 -17.15 -2.75 -27.15 -5.40 -31.65 -19.30 -62.25 -39.75 -87.65 -29 -35.95 -70.70 -60.55 -116.10 -68.40 -21.25 -3.70 -41.40 -3.70 -62.10 0 -60.75 10.90 -112.45 49.70 -140.05 105.15 -11.80 23.75 -18.45 49.35 -19.95 77.05 -0.40 6.50 0.35 20.25 1.55 29 9.30 69.10 54.75 127.50 119.20 153.15 21 8.35 41.45 12.60 65.25 13.55 10.95 0.45 13.65 1.05 17.85 3.95 6.35 4.35 9.40 10.70 9.40 19.40 0 9.20 -4.55 16.80 -12.15 20.40 -4.95 2.30 -9.35 2.60 -25.25 1.75z"/>
  <path d="M194 380.25 c-59.50 -16.45 -102.70 -67.35 -109.25 -128.75 -0.95 -8.90 -0.95 -26.10 0 -33.85 3.45 -27.70 13.10 -51.70 29.90 -74.15 5.90 -7.90 19.05 -21.35 26.35 -27 23.05 -17.80 48.80 -28.50 76.50 -31.75 7.30 -0.85 25.40 -1 33.05 -0.25 60.45 6 111.40 47.90 128.65 105.75 3.40 11.45 3.50 18.15 0.45 24.65 -1.55 3.30 -6 8 -9.05 9.55 -6.85 3.50 -17.30 3.35 -23.55 -0.30 -5.90 -3.45 -8.35 -7.20 -11.45 -17.70 -5.65 -18.90 -14.65 -33.70 -28.70 -47.20 -10.50 -10.15 -21.60 -17.25 -35.10 -22.50 -15.45 -6 -32.65 -8.40 -47.30 -6.50 -44.75 5.70 -80.80 37.50 -91.75 81 -2.95 11.65 -3.80 21.35 -2.75 31.80 3.40 33.40 21.95 63.30 50.15 80.80 6.75 4.15 14.70 7.80 24.10 10.95 8.85 3 11.70 4.65 14.80 8.45 4.85 6.05 6.20 15.55 3.35 23.60 -1.95 5.65 -6.70 10.50 -12.40 12.70 -3.65 1.45 -12.05 1.80 -16 0.70z"/>
 </g>
 <g fill="#ffffff">
  <path d="M0.05 379.90 c0.05 -130.10 0.10 -132 0.95 -123.40 3.20 31.05 10.90 57.60 24.40 84.25 11.75 23.05 24.95 41.20 43.55 59.75 9.60 9.60 15.30 14.60 24.80 21.75 28.85 21.75 63.15 36.75 98.80 43.20 15.55 2.85 38.95 4.65 45.35 3.55 12.60 -2.20 20.50 -14.10 17.35 -26.15 -1.40 -5.40 -4.15 -9.35 -8.65 -12.45 -4.20 -2.90 -6.90 -3.50 -17.85 -3.95 -23.80 -0.95 -44.25 -5.20 -65.25 -13.55 -56.15 -22.35 -98.45 -69.90 -114.20 -128.35 -10.70 -39.70 -8.40 -80.10 6.75 -118.85 17.65 -45.10 52.75 -82.95 96.15 -103.70 20.65 -9.90 39.85 -15.45 63.30 -18.30 14.75 -1.80 35.60 -1.05 52.35 1.85 45.40 7.85 87.10 32.45 116.10 68.40 23.80 29.50 38.15 64.90 41.80 102.95 0.40 4.25 0.75 10.15 0.75 13.10 0 9.75 1.65 14.70 6.55 19.65 8.50 8.50 22.40 8.30 30.40 -0.40 5.40 -5.95 6.40 -10.45 5.55 -25.60 -1.20 -21.85 -4.75 -41.45 -11.05 -61.05 -25.25 -78.20 -89.50 -137.45 -169.60 -156.40 -8.55 -2 -19.35 -3.90 -26.85 -4.70 -2.90 -0.30 -7.05 -0.70 -9.25 -0.95 -2.25 -0.25 53.95 -0.45 127.90 -0.50 l131.85 -0.05 0 182.05 c0 121.20 -0.15 181.90 -0.50 181.70 -0.25 -0.15 -0.50 -0.75 -0.50 -1.30 0 -1.75 -2.50 -6 -4.90 -8.40 -2.50 -2.45 -3.20 -2.85 -27.85 -15.95 -8.80 -4.65 -25 -13.25 -36 -19.10 -11 -5.85 -27.20 -14.45 -36 -19.15 -8.80 -4.65 -23.10 -12.25 -31.75 -16.85 -25.05 -13.35 -54.75 -29.10 -67.75 -36 -6.60 -3.50 -21.45 -11.40 -32.95 -17.50 -11.50 -6.15 -22 -11.55 -23.25 -12 -5.45 -2.05 -10.85 -1.70 -16.20 1.15 -5.80 3.05 -9.65 8.95 -10.20 15.65 -0.55 6.25 -5 -2.95 55.35 114.20 3.75 7.30 22.90 44.40 42.50 82.50 19.60 38.10 36.30 70.30 37.10 71.65 2.60 4.10 8.35 8.35 11.30 8.35 0.60 0 1.10 0.25 1.10 0.50 0 0.35 -62.25 0.50 -185.75 0.50 l-185.75 0 0.05 -132.10z m208.45 -1.85 c7.35 -2.80 12.65 -9.70 13.75 -18.05 0.40 -2.70 -0.75 -8.55 -2.15 -11.30 -3.20 -6.25 -6.75 -8.80 -17.35 -12.40 -20.75 -7 -36.60 -17.55 -49.35 -32.75 -19.05 -22.80 -28.25 -53 -24.60 -81.15 5.70 -44.20 37.70 -80.25 80.95 -91.15 9.85 -2.50 18.35 -3.45 28.25 -3.10 27.05 0.90 51.15 11.05 70.40 29.60 14.05 13.50 23.05 28.30 28.70 47.20 2.45 8.30 4.30 11.95 7.50 14.80 8.65 7.80 21.25 7.50 29.35 -0.60 4.90 -4.95 7.20 -11.80 6.05 -18.30 -0.80 -4.55 -3.80 -14.30 -6.35 -20.85 -20.55 -52.15 -68.60 -88.45 -124.60 -94 -7.50 -0.75 -22.85 -0.60 -30.05 0.25 -27.70 3.25 -53.45 13.95 -76.50 31.75 -7.30 5.65 -20.45 19.10 -26.35 27 -23.30 31.15 -33.85 68.20 -29.90 105 6.55 61.40 49.70 112.25 109.25 128.75 3.60 1 9.40 0.70 13 -0.70z"/>
  <path d="M380.30 511.60 c0.25 -0.25 1.35 -0.70 2.45 -1 2.55 -0.75 6.10 -3.35 8.40 -6.20 1.20 -1.45 7.55 -14.90 20 -42.40 l18.25 -40.25 37.20 -18.75 c31.45 -15.90 37.50 -19.10 39.45 -21.05 2.40 -2.35 4.95 -6.65 4.95 -8.40 0 -0.55 0.25 -1.15 0.50 -1.30 0.35 -0.20 0.50 23.15 0.50 69.70 l0 70.05 -66.10 0 c-36.35 0 -65.90 -0.20 -65.60 -0.40z"/>
  <path d="M0.10 111.40 l-0.10 -111.40 111.65 0.10 c61.35 0 110.80 0.15 109.85 0.25 -25.15 2.35 -39.90 5.25 -59.15 11.70 -32.75 10.95 -61.35 27.95 -87.10 51.80 -37.95 35.15 -64 83.75 -72.20 134.85 -0.85 5.05 -1.85 13.35 -2.70 22.30 -0.10 0.95 -0.25 -48.35 -0.25 -109.60z"/>
 </g>
</svg>